HIERARCHY
ROOT joint_0
{
	OFFSET 0.000000 0.000000 0.000000
	CHANNELS 6 Xposition Yposition Zposition Zrotation Yrotation Xrotation 
	JOINT joint_1
	{
		OFFSET 3.886261 -0.864090 119.041016
		CHANNELS 3 Zrotation Yrotation Xrotation
		JOINT joint_2
		{
			OFFSET -8.814819 -1.400200 108.366943
			CHANNELS 3 Zrotation Yrotation Xrotation
			JOINT joint_3
			{
				OFFSET -10.127777 -1.846550 108.123047
				CHANNELS 3 Zrotation Yrotation Xrotation
				JOINT joint_4
				{
					OFFSET -0.104309 -2.852760 150.227051
					CHANNELS 3 Zrotation Yrotation Xrotation
					JOINT joint_5
					{
						OFFSET 20.206146 2.292160 92.163940
						CHANNELS 3 Zrotation Yrotation Xrotation
						End Site
						{
							OFFSET 0.000000 0.000000 0.000000
						}
					}
				}
				JOINT joint_6
				{
					OFFSET 0.345886 -34.260384 83.589966
					CHANNELS 3 Zrotation Yrotation Xrotation
					JOINT joint_7
					{
						OFFSET -3.824402 -146.174217 -19.015991
						CHANNELS 3 Zrotation Yrotation Xrotation
						JOINT joint_8
						{
							OFFSET 134.098145 -24.802032 -261.230957
							CHANNELS 3 Zrotation Yrotation Xrotation
							JOINT joint_9
							{
								OFFSET 123.899048 209.340523 59.187012
								CHANNELS 3 Zrotation Yrotation Xrotation
								End Site
								{
									OFFSET 0.000000 0.000000 0.000000
								}
							}
						}
					}
				}
				JOINT joint_10
				{
					OFFSET -0.423798 31.098438 84.831055
					CHANNELS 3 Zrotation Yrotation Xrotation
					JOINT joint_11
					{
						OFFSET 3.093201 146.891491 -12.504028
						CHANNELS 3 Zrotation Yrotation Xrotation
						JOINT joint_12
						{
							OFFSET 195.631927 -20.967743 -219.380981
							CHANNELS 3 Zrotation Yrotation Xrotation
							JOINT joint_13
							{
								OFFSET -8.651001 -247.511261 -36.616089
								CHANNELS 3 Zrotation Yrotation Xrotation
								End Site
								{
									OFFSET 0.000000 0.000000 0.000000
								}
							}
						}
					}
				}
			}
		}
	}
	JOINT joint_14
	{
		OFFSET 6.948090 -87.642914 -106.942017
		CHANNELS 3 Zrotation Yrotation Xrotation
		JOINT joint_15
		{
			OFFSET -34.394226 4.543823 -458.972961
			CHANNELS 3 Zrotation Yrotation Xrotation
			JOINT joint_16
			{
				OFFSET -17.051544 6.964645 -485.636009
				CHANNELS 3 Zrotation Yrotation Xrotation
				JOINT joint_17
				{
					OFFSET 190.520630 40.462875 -83.888000
					CHANNELS 3 Zrotation Yrotation Xrotation
					End Site
					{
						OFFSET 0.000000 0.000000 0.000000
					}
				}
			}
		}
	}
	JOINT joint_18
	{
		OFFSET 3.929901 87.535423 -107.188965
		CHANNELS 3 Zrotation Yrotation Xrotation
		JOINT joint_19
		{
			OFFSET -34.463440 -10.383845 -458.873047
			CHANNELS 3 Zrotation Yrotation Xrotation
			JOINT joint_20
			{
				OFFSET 14.641205 -11.071349 -485.637978
				CHANNELS 3 Zrotation Yrotation Xrotation
				JOINT joint_21
				{
					OFFSET 194.569275 -4.161928 -84.249998
					CHANNELS 3 Zrotation Yrotation Xrotation
					End Site
					{
						OFFSET 0.000000 0.000000 0.000000
					}
				}
			}
		}
	}
}
MOTION
Frames: 9
Frame Time: 0.016667
-60.984127 -96.018646 1168.067017 -18.589193 5.801111 -2.805439 1.699992 -7.746858 4.910554 1.688367 1.056495 -0.963061 1.839090 -2.015465 0.579548 -0.062650 -5.247479 1.055094 0.000000 0.000000 0.000000 -1.100618 16.929675 -1.691150 -3.099223 17.943097 -5.575897 -49.237178 15.228685 -69.864721 0.000000 0.000000 0.000000 2.610278 24.326806 -8.485091 19.031584 24.158959 15.887418 47.263328 -37.883340 36.630872 0.000000 0.000000 0.000000 7.830310 -16.672768 -1.140619 7.669874 28.729054 4.673453 7.014482 -2.726468 3.432786 0.000000 0.000000 0.000000 4.030904 -9.105089 4.199086 3.590103 23.206007 0.150127 2.665695 -10.179976 0.884567 0.000000 0.000000 0.000000 
-48.712704 -94.693359 1172.102051 -19.449896 5.785043 -2.913531 1.387849 -7.601597 5.250712 1.675991 1.022210 -0.944790 1.858588 -2.008530 0.652107 -0.160114 -4.683374 1.357356 0.000000 0.000000 0.000000 -1.464458 16.099108 -1.920717 -4.747449 17.631193 -5.758130 -49.487058 15.626864 -68.012394 0.000000 0.000000 0.000000 3.058094 24.125905 -7.818501 19.271933 23.876203 13.674071 49.569891 -38.680518 35.288402 0.000000 0.000000 0.000000 7.680703 -20.029973 -1.696950 7.486390 35.022002 5.973596 6.187301 -1.417916 2.759165 0.000000 0.000000 0.000000 3.812391 -9.997801 4.514653 3.494667 25.921106 -0.193018 2.047179 -9.040215 0.644040 0.000000 0.000000 0.000000 
-35.439453 -94.701851 1176.241943 -20.352028 5.795371 -3.082411 1.238197 -7.622141 5.574402 1.899310 1.008232 -0.954478 2.117264 -1.985808 0.659516 -0.268359 -4.081215 1.751536 0.000000 0.000000 0.000000 -1.806123 15.372928 -1.680493 -5.430159 16.938233 -5.169699 -50.667909 14.900584 -68.039048 0.000000 0.000000 0.000000 2.382786 23.784995 -6.902933 21.095494 23.601043 11.263740 51.781370 -37.988416 32.242149 0.000000 0.000000 0.000000 6.900083 -22.694062 -1.836534 6.857529 39.967365 6.311492 4.168636 -1.344347 1.934225 0.000000 0.000000 0.000000 3.375106 -9.353481 4.741513 3.372671 25.837554 -0.480832 1.737866 -7.525972 0.544775 0.000000 0.000000 0.000000 
-21.957420 -95.245316 1180.130981 -21.238297 5.842019 -3.253360 1.168537 -7.768273 5.895042 2.221575 1.026386 -0.967471 2.478028 -1.964798 0.640418 -0.375297 -3.451177 2.171733 0.000000 0.000000 0.000000 -2.094387 14.731336 -1.207403 -5.748047 16.129138 -4.305899 -52.273807 13.665429 -68.657532 0.000000 0.000000 0.000000 1.307138 23.341929 -5.938852 23.932511 23.442232 8.946798 53.758751 -36.256780 28.364018 0.000000 0.000000 0.000000 6.062447 -24.980665 -1.872380 6.231803 43.710996 6.247900 1.848912 -2.002066 1.188276 0.000000 0.000000 0.000000 2.912721 -8.056663 4.801987 3.213847 24.482557 -0.625691 1.612408 -5.915957 0.524870 0.000000 0.000000 0.000000 
-9.322923 -95.399452 1182.953979 -21.951729 5.929943 -3.359627 1.128896 -7.873664 6.232064 2.438752 1.041945 -0.968538 2.724654 -1.962619 0.637690 -0.448532 -2.908073 2.451049 0.000000 0.000000 0.000000 -2.218909 14.140019 -0.838695 -6.288300 15.488942 -3.746263 -53.523501 12.790897 -68.661378 0.000000 0.000000 0.000000 0.721102 22.874400 -5.143621 27.806804 23.462010 7.008925 55.491847 -33.772841 23.941879 0.000000 0.000000 0.000000 5.837586 -26.883994 -2.199095 6.068797 45.678854 6.326699 0.683031 -2.588520 0.878648 0.000000 0.000000 0.000000 2.668546 -7.057796 4.674499 3.106720 23.495959 -0.618223 1.524639 -4.600260 0.514301 0.000000 0.000000 0.000000 
2.220059 -95.226677 1184.821045 -22.525459 6.118553 -3.478447 1.164944 -7.992107 6.636423 2.578957 1.080399 -0.963363 2.880907 -1.994239 0.643672 -0.482768 -2.509703 2.563035 0.000000 0.000000 0.000000 -2.116989 13.564956 -0.582692 -7.118846 15.046504 -3.563950 -54.528997 12.328299 -68.224444 0.000000 0.000000 0.000000 0.699343 22.475655 -4.530075 32.967702 23.548342 5.506426 56.557092 -29.809055 18.720277 0.000000 0.000000 0.000000 6.302940 -28.479805 -2.976439 6.403582 45.780885 6.740363 1.093009 -3.130067 1.151222 0.000000 0.000000 0.000000 2.680141 -6.313326 4.380038 3.121919 22.643606 -0.364792 1.585529 -3.556551 0.557889 0.000000 0.000000 0.000000 
13.333910 -94.827583 1185.727051 -23.027226 6.335459 -3.541861 1.266000 -8.130966 7.088088 2.659394 1.138516 -0.977374 2.969210 -2.035486 0.659769 -0.500854 -2.141216 2.600399 0.000000 0.000000 0.000000 -1.955383 13.034466 -0.474468 -8.001378 14.671739 -3.392686 -55.247685 12.062159 -67.485879 0.000000 0.000000 0.000000 0.842855 22.051675 -4.185669 38.016035 23.519355 4.669474 56.611476 -25.083758 14.044098 0.000000 0.000000 0.000000 7.056772 -29.701691 -3.927899 6.872118 44.455415 7.175910 2.195972 -3.574613 1.661541 0.000000 0.000000 0.000000 2.816241 -5.722907 4.006113 3.191074 22.003137 -0.108817 1.680076 -2.799896 0.609187 0.000000 0.000000 0.000000 
24.662083 -94.052170 1185.399048 -23.490530 6.469307 -3.405574 1.389935 -8.229792 7.539783 2.637104 1.193571 -1.030219 2.950184 -2.052912 0.702983 -0.519486 -1.664311 2.621241 0.000000 0.000000 0.000000 -1.937769 12.611871 -0.640600 -8.779351 14.264843 -2.875370 -55.322777 12.000794 -66.193052 0.000000 0.000000 0.000000 0.901182 21.408786 -4.132412 42.065843 23.400039 4.388125 56.386038 -21.142164 10.781236 0.000000 0.000000 0.000000 7.777467 -30.439353 -4.717689 7.152712 42.128057 7.294552 3.143351 -3.592678 2.025848 0.000000 0.000000 0.000000 2.957164 -5.437571 3.651531 3.240051 22.216494 -0.227055 1.593185 -2.502334 0.578625 0.000000 0.000000 0.000000 
36.115044 -92.944626 1183.899048 -23.960315 6.478586 -3.104682 1.586643 -8.198677 8.092853 2.499909 1.224139 -1.135680 2.806971 -2.043762 0.764390 -0.531851 -1.101776 2.593867 0.000000 0.000000 0.000000 -2.060035 12.326760 -1.112288 -9.547760 13.858102 -1.974421 -54.431397 12.412547 -63.943929 0.000000 0.000000 0.000000 0.896348 20.327391 -4.344586 45.777166 23.174659 4.689062 56.227898 -17.793888 8.593491 0.000000 0.000000 0.000000 8.484464 -30.507299 -5.192280 7.260235 38.150509 7.008112 4.062668 -2.877727 2.235849 0.000000 0.000000 0.000000 3.225974 -5.373511 3.297343 3.370767 23.149274 -0.635326 1.432371 -2.541085 0.511696 0.000000 0.000000 0.000000 
